/* XPM */
static char * 1_bars_xpm[] = {
"13 10 2 1",
" 	c None",
".	c #FFFFFF",
"             ",
"             ",
"             ",
"             ",
"             ",
"             ",
"             ",
"             ",
"     ...     ",
"      .      "};
