/* XPM */
static char * 2_bars_xpm[] = {
"13 10 2 1",
" 	c None",
".	c #FFFFFF",
"             ",
"             ",
"             ",
"             ",
"             ",
"             ",
"    .....    ",
"             ",
"     ...     ",
"      .      "};
