/* XPM */
static char * 3_bars_xpm[] = {
"13 10 2 1",
" 	c None",
".	c #FFFFFF",
"             ",
"             ",
"             ",
"     ...     ",
"  .........  ",
"             ",
"    .....    ",
"             ",
"     ...     ",
"      .      "};
