/* XPM */
static char * 4_bars_xpm[] = {
"13 10 2 1",
" 	c None",
".	c #FFFFFF",
"    .....    ",
" ........... ",
"....     ....",
"     ...     ",
"  .........  ",
"             ",
"    .....    ",
"             ",
"     ...     ",
"      .      "};
